<svg width="39" height="40" viewBox="0 0 39 40" fill="none" xmlns="http://www.w3.org/2000/svg">
<g filter="url(#filter0_bi_2273_28343)">
<path d="M19.6823 3.98853C10.6793 3.98853 3.38086 11.2869 3.38086 20.29C3.38086 29.2931 10.6793 36.5915 19.6823 36.5915C28.6854 36.5915 35.9838 29.2931 35.9838 20.29C35.9838 11.2869 28.6854 3.98853 19.6823 3.98853Z" fill="#29210E" fill-opacity="0.6"/>
<path d="M4.33977 20.29C4.33977 11.8165 11.2089 4.94744 19.6823 4.94744C28.1558 4.94744 35.0249 11.8165 35.0249 20.29C35.0249 28.7635 28.1558 35.6326 19.6823 35.6326C11.2089 35.6326 4.33977 28.7635 4.33977 20.29Z" stroke="#FEC600" stroke-opacity="0.07" stroke-width="1.91782"/>
</g>
<path d="M1.78993 20.1379C1.78993 10.3405 9.73233 2.39808 19.5298 2.39808C29.3272 2.39808 37.2696 10.3405 37.2696 20.1379C37.2696 29.9354 29.3272 37.8778 19.5298 37.8778C9.73233 37.8778 1.78993 29.9354 1.78993 20.1379Z" stroke="url(#paint0_linear_2273_28343)" stroke-width="2.87673" stroke-linecap="round"/>
<path d="M19.4282 7.53127C19.4604 7.43206 19.6008 7.43206 19.633 7.53127L20.3929 9.87005C20.4074 9.91442 20.4487 9.94446 20.4954 9.94446H22.9545C23.0588 9.94446 23.1022 10.078 23.0178 10.1393L21.0283 11.5847C20.9906 11.6121 20.9748 11.6607 20.9892 11.7051L21.7491 14.0439C21.7813 14.1431 21.6678 14.2256 21.5834 14.1643L19.5939 12.7188C19.5562 12.6914 19.5051 12.6914 19.4673 12.7188L17.4778 14.1643C17.3934 14.2256 17.2799 14.1431 17.3121 14.0439L18.072 11.7051C18.0864 11.6607 18.0706 11.6121 18.0329 11.5847L16.0434 10.1393C15.959 10.078 16.0024 9.94446 16.1067 9.94446H18.5659C18.6125 9.94446 18.6539 9.91442 18.6683 9.87005L19.4282 7.53127Z" fill="url(#paint1_linear_2273_28343)"/>
<path d="M13.5053 8.51833C13.5376 8.41912 13.6779 8.41912 13.7102 8.51833L14.4701 10.8571C14.4845 10.9015 14.5259 10.9315 14.5725 10.9315H17.0316C17.136 10.9315 17.1793 11.065 17.0949 11.1263L15.1055 12.5718C15.0677 12.5992 15.0519 12.6478 15.0663 12.6922L15.8263 15.031C15.8585 15.1302 15.7449 15.2127 15.6605 15.1514L13.6711 13.7059C13.6333 13.6785 13.5822 13.6785 13.5445 13.7059L11.555 15.1514C11.4706 15.2127 11.357 15.1302 11.3893 15.031L12.1492 12.6922C12.1636 12.6478 12.1478 12.5992 12.1101 12.5718L10.1206 11.1263C10.0362 11.065 10.0795 10.9315 10.1839 10.9315H12.643C12.6897 10.9315 12.731 10.9015 12.7454 10.8571L13.5053 8.51833Z" fill="url(#paint2_linear_2273_28343)"/>
<path d="M25.351 8.51833C25.3833 8.41912 25.5236 8.41912 25.5559 8.51833L26.3158 10.8571C26.3302 10.9015 26.3716 10.9315 26.4182 10.9315H28.8773C28.9817 10.9315 29.025 11.065 28.9406 11.1263L26.9512 12.5718C26.9134 12.5992 26.8976 12.6478 26.912 12.6922L27.672 15.031C27.7042 15.1302 27.5906 15.2127 27.5062 15.1514L25.5168 13.7059C25.479 13.6785 25.4279 13.6785 25.3902 13.7059L23.4007 15.1514C23.3163 15.2127 23.2027 15.1302 23.235 15.031L23.9949 12.6922C24.0093 12.6478 23.9935 12.5992 23.9558 12.5718L21.9663 11.1263C21.8819 11.065 21.9253 10.9315 22.0296 10.9315H24.4887C24.5354 10.9315 24.5767 10.9015 24.5911 10.8571L25.351 8.51833Z" fill="url(#paint3_linear_2273_28343)"/>
<path d="M10.4521 20.8485C10.4521 20.1231 10.9602 19.5352 11.587 19.5352L-nan -nanL11.587 19.5352C12.2137 19.5352 12.7218 20.1231 12.7218 20.8485V23.4751C12.7218 24.2004 12.2137 24.7884 11.587 24.7884L-nan -nanL11.587 24.7884C10.9602 24.7884 10.4521 24.2004 10.4521 23.4751V20.8485Z" fill="url(#paint4_linear_2273_28343)"/>
<path d="M28.6143 20.8485C28.6143 20.1231 28.1062 19.5352 27.4795 19.5352L-nan -nanL27.4795 19.5352C26.8527 19.5352 26.3447 20.1231 26.3447 20.8485V23.4751C26.3447 24.2004 26.8527 24.7884 27.4795 24.7884L-nan -nanL27.4795 24.7884C28.1062 24.7884 28.6143 24.2004 28.6143 23.4751V20.8485Z" fill="url(#paint5_linear_2273_28343)"/>
<path d="M21.061 23.0112C22.1211 23.0112 22.9805 22.6048 22.9805 22.1034L-nan -nanL22.9805 22.1034C22.9805 21.602 22.1211 21.1955 21.061 21.1955L17.2221 21.1955C16.162 21.1955 15.3027 21.602 15.3027 22.1034L-nan -nanL15.3027 22.1034C15.3027 22.6048 16.162 23.0112 17.2221 23.0112L21.061 23.0112Z" fill="url(#paint6_linear_2273_28343)"/>
<path d="M14.0898 18.5548C14.0898 17.7577 14.6995 17.1116 15.4516 17.1116L-nan -nanL15.4516 17.1116C16.2037 17.1116 16.8134 17.7577 16.8134 18.5548V25.7708C16.8134 26.5678 16.2037 27.214 15.4516 27.214L-nan -nanL15.4516 27.214C14.6995 27.214 14.0898 26.5678 14.0898 25.7708V18.5548Z" fill="#FEC600"/>
<path d="M24.9775 18.5548C24.9775 17.7577 24.3679 17.1116 23.6158 17.1116L-nan -nanL23.6158 17.1116C22.8637 17.1116 22.254 17.7577 22.254 18.5548V25.7708C22.254 26.5678 22.8637 27.214 23.6158 27.214L-nan -nanL23.6158 27.214C24.3679 27.214 24.9775 26.5678 24.9775 25.7708V18.5548Z" fill="#FEC600"/>
<defs>
<filter id="filter0_bi_2273_28343" x="-3.01188" y="-2.40421" width="45.388" height="45.3885" filterUnits="userSpaceOnUse" color-interpolation-filters="sRGB">
<feFlood flood-opacity="0" result="BackgroundImageFix"/>
<feGaussianBlur in="BackgroundImageFix" stdDeviation="3.19637"/>
<feComposite in2="SourceAlpha" operator="in" result="effect1_backgroundBlur_2273_28343"/>
<feBlend mode="normal" in="SourceGraphic" in2="effect1_backgroundBlur_2273_28343" result="shape"/>
<feColorMatrix in="SourceAlpha" type="matrix" values="0 0 0 0 0 0 0 0 0 0 0 0 0 0 0 0 0 0 127 0" result="hardAlpha"/>
<feOffset/>
<feGaussianBlur stdDeviation="3.19637"/>
<feComposite in2="hardAlpha" operator="arithmetic" k2="-1" k3="1"/>
<feColorMatrix type="matrix" values="0 0 0 0 0.996078 0 0 0 0 0.6 0 0 0 0 0.0509804 0 0 0 0.1 0"/>
<feBlend mode="normal" in2="shape" result="effect2_innerShadow_2273_28343"/>
</filter>
<linearGradient id="paint0_linear_2273_28343" x1="4.61339" y1="9.04425" x2="34.7953" y2="38.7906" gradientUnits="userSpaceOnUse">
<stop stop-color="#FEC600"/>
<stop offset="0.974714" stop-color="#FEC600" stop-opacity="0"/>
</linearGradient>
<linearGradient id="paint1_linear_2273_28343" x1="16.4595" y1="8.88058" x2="21.0365" y2="14.2743" gradientUnits="userSpaceOnUse">
<stop stop-color="#FEC600"/>
<stop offset="0.974714" stop-color="#FEC600" stop-opacity="0"/>
</linearGradient>
<linearGradient id="paint2_linear_2273_28343" x1="10.5366" y1="9.86764" x2="15.1137" y2="15.2614" gradientUnits="userSpaceOnUse">
<stop stop-color="#FEC600"/>
<stop offset="0.974714" stop-color="#FEC600" stop-opacity="0"/>
</linearGradient>
<linearGradient id="paint3_linear_2273_28343" x1="22.3823" y1="9.86764" x2="26.9594" y2="15.2614" gradientUnits="userSpaceOnUse">
<stop stop-color="#FEC600"/>
<stop offset="0.974714" stop-color="#FEC600" stop-opacity="0"/>
</linearGradient>
<linearGradient id="paint4_linear_2273_28343" x1="10.7043" y1="20.6464" x2="13.2511" y2="21.6828" gradientUnits="userSpaceOnUse">
<stop stop-color="#FEC600"/>
<stop offset="1" stop-color="#FEC600" stop-opacity="0"/>
</linearGradient>
<linearGradient id="paint5_linear_2273_28343" x1="28.3621" y1="20.6464" x2="25.8153" y2="21.6828" gradientUnits="userSpaceOnUse">
<stop stop-color="#FEC600"/>
<stop offset="1" stop-color="#FEC600" stop-opacity="0"/>
</linearGradient>
<linearGradient id="paint6_linear_2273_28343" x1="21.3563" y1="22.8095" x2="20.8523" y2="20.5469" gradientUnits="userSpaceOnUse">
<stop stop-color="#FEC600"/>
<stop offset="1" stop-color="#FEC600" stop-opacity="0"/>
</linearGradient>
</defs>
</svg>
