<svg width="39" height="40" viewBox="0 0 39 40" fill="none" xmlns="http://www.w3.org/2000/svg">
<g filter="url(#filter0_bi_2273_28325)">
<path d="M19.2175 3.83545C10.2144 3.83545 2.91602 11.1339 2.91602 20.1369C2.91602 29.14 10.2144 36.4384 19.2175 36.4384C28.2206 36.4384 35.519 29.14 35.519 20.1369C35.519 11.1339 28.2206 3.83545 19.2175 3.83545Z" fill="#29210E" fill-opacity="0.6"/>
<path d="M3.87493 20.1369C3.87493 11.6635 10.744 4.79436 19.2175 4.79436C27.691 4.79436 34.5601 11.6635 34.5601 20.1369C34.5601 28.6104 27.691 35.4795 19.2175 35.4795C10.744 35.4795 3.87493 28.6104 3.87493 20.1369Z" stroke="#FEC600" stroke-opacity="0.07" stroke-width="1.91782"/>
</g>
<path d="M1.47938 20.1379C1.47938 10.3405 9.42178 2.39808 19.2192 2.39808C29.0167 2.39808 36.9591 10.3405 36.9591 20.1379C36.9591 29.9354 29.0167 37.8778 19.2192 37.8778C9.42178 37.8778 1.47938 29.9354 1.47938 20.1379Z" stroke="url(#paint0_linear_2273_28325)" stroke-width="2.87673" stroke-linecap="round"/>
<path fill-rule="evenodd" clip-rule="evenodd" d="M26.8672 16.2207L26.8672 20.5193L25.9601 20.9268L25.9601 16.2207L26.8672 16.2207Z" fill="url(#paint1_linear_2273_28325)"/>
<path d="M14.3994 24.164V20.1458C14.3994 20.1458 18.1575 21.5141 18.9091 21.649C19.6607 21.7839 19.6607 21.7839 20.4123 21.649C22.6671 21.2443 24.9219 20.1458 24.9219 20.1458V24.164C24.9219 24.164 21.7153 25.7828 19.6607 25.7828C17.606 25.7828 14.3994 24.164 14.3994 24.164Z" fill="url(#paint2_linear_2273_28325)"/>
<path d="M10.6416 17.7065L19.6609 14.5122L28.3044 17.7065L19.6609 20.9009L10.6416 17.7065Z" fill="url(#paint3_linear_2273_28325)"/>
<circle cx="26.58" cy="21.432" r="0.907131" fill="url(#paint4_linear_2273_28325)"/>
<path fill-rule="evenodd" clip-rule="evenodd" d="M16.9257 7.81727L18.8198 9.76367C19.016 9.95623 19.016 10.2684 18.8198 10.461L16.9556 12.1893C16.7594 12.3819 16.4414 12.3819 16.2452 12.1893C16.049 11.9967 16.049 11.6845 16.2452 11.492L17.2238 10.6331C13.4716 10.807 11.568 11.7762 10.5855 12.8726C9.49534 14.0891 9.42354 15.5815 9.42354 16.7689C9.42354 17.0412 9.19865 17.262 8.92124 17.262C8.64383 17.262 8.41895 17.0412 8.41895 16.7689C8.41895 15.573 8.47272 13.7372 9.83121 12.2212C11.0751 10.8332 12.8425 9.76367 17.2769 9.64367L16.2154 8.51459C16.0192 8.32203 16.0192 8.00983 16.2154 7.81727C16.4115 7.62471 16.7296 7.62471 16.9257 7.81727Z" fill="url(#paint5_linear_2273_28325)"/>
<mask id="path-9-inside-1_2273_28325" fill="white">
<path fill-rule="evenodd" clip-rule="evenodd" d="M16.9258 7.81637L18.8199 9.76277C19.0161 9.95533 19.0161 10.2675 18.8199 10.4601L16.9556 12.1884C16.7595 12.381 16.4414 12.381 16.2453 12.1884C16.0491 11.9958 16.0491 11.6836 16.2453 11.4911L17.2239 10.6322C17.0566 10.64 16.893 10.6493 16.733 10.6602C13.3037 10.8928 11.5243 11.8241 10.5856 12.8717C9.49542 14.0882 9.42362 15.5807 9.42362 16.768C9.42362 17.0403 9.19873 17.2611 8.92132 17.2611C8.64391 17.2611 8.41902 17.0403 8.41902 16.768C8.41902 15.5721 8.4728 13.7363 9.83129 12.2203C11.0368 10.8751 12.7341 9.82903 16.8743 9.65656C17.006 9.65108 17.1402 9.64647 17.277 9.64277L16.2155 8.51369C16.0193 8.32113 16.0193 8.00893 16.2155 7.81637C16.4116 7.62381 16.7297 7.62381 16.9258 7.81637ZM15.9985 8.72502C15.6863 8.41338 15.6879 7.90995 16.0033 7.60028C16.3173 7.29209 16.824 7.29209 17.138 7.60028L17.1429 7.60513L19.0348 9.54937C19.3491 9.86085 19.3482 10.3658 19.0321 10.6762L19.0259 10.6823L17.1643 12.4079C16.8501 12.7127 16.3459 12.7116 16.0332 12.4045C15.7161 12.0932 15.7161 11.5862 16.0332 11.275L16.0392 11.2691L16.3535 10.9932C13.2327 11.2656 11.6423 12.1462 10.8111 13.0738C9.80363 14.198 9.72643 15.5837 9.72643 16.768C9.72643 17.2128 9.36066 17.5639 8.92132 17.5639C8.48198 17.5639 8.11621 17.2128 8.11621 16.768C8.11621 15.5687 8.16471 13.6264 9.60578 12.0182C10.2536 11.2954 11.0439 10.6504 12.2462 10.1745C13.3194 9.74964 14.7092 9.46401 16.6013 9.36616L15.9985 8.72502Z"/>
</mask>
<path d="M16.9258 7.81637L18.9875 5.81011L18.9645 5.78652L18.9411 5.76346L16.9258 7.81637ZM18.8199 9.76277L16.7583 11.769L16.7812 11.7926L16.8047 11.8157L18.8199 9.76277ZM18.8199 10.4601L20.7757 12.5697L20.8058 12.5418L20.8352 12.513L18.8199 10.4601ZM16.9556 12.1884L14.9999 10.0788L14.9697 10.1067L14.9404 10.1355L16.9556 12.1884ZM16.2453 12.1884L18.2605 10.1355L18.2605 10.1355L16.2453 12.1884ZM16.2453 11.4911L14.3477 9.32897L14.2873 9.38193L14.23 9.43818L16.2453 11.4911ZM17.2239 10.6322L19.1215 12.7943L25.2923 7.37845L17.0907 7.75857L17.2239 10.6322ZM16.733 10.6602L16.5383 7.79002L16.5383 7.79002L16.733 10.6602ZM10.5856 12.8717L12.728 14.7915L12.728 14.7915L10.5856 12.8717ZM9.83129 12.2203L7.68891 10.3005L7.68891 10.3005L9.83129 12.2203ZM16.8743 9.65656L16.994 12.5308H16.994L16.8743 9.65656ZM17.277 9.64277L17.3548 12.5185L23.7658 12.345L19.3729 7.67231L17.277 9.64277ZM16.2155 8.51369L18.3114 6.54323L18.2719 6.5012L18.2307 6.46079L16.2155 8.51369ZM16.2155 7.81637L18.2307 9.86928L18.2307 9.86928L16.2155 7.81637ZM16.0033 7.60028L13.9881 5.54737L13.9881 5.54737L16.0033 7.60028ZM15.9985 8.72502L18.0944 6.75456L18.0631 6.72122L18.0307 6.68889L15.9985 8.72502ZM17.138 7.60028L15.1227 9.65319L15.1228 9.65323L17.138 7.60028ZM17.1429 7.60513L19.2046 5.59892L19.1816 5.57529L19.1581 5.55218L17.1429 7.60513ZM19.0348 9.54937L16.9731 11.5556L16.9913 11.5744L17.01 11.5928L19.0348 9.54937ZM19.0321 10.6762L21.0472 12.7292L21.0473 12.7291L19.0321 10.6762ZM19.0259 10.6823L20.9815 12.792L21.0117 12.764L21.041 12.7352L19.0259 10.6823ZM17.1643 12.4079L15.2087 10.2981L15.1847 10.3204L15.1612 10.3431L17.1643 12.4079ZM16.0332 12.4045L18.0484 10.3516L18.0484 10.3516L16.0332 12.4045ZM16.0332 11.275L14.0179 9.22208L14.0179 9.22208L16.0332 11.275ZM16.0392 11.2691L14.1416 9.10696L14.0812 9.15992L14.024 9.21616L16.0392 11.2691ZM16.3535 10.9932L18.2511 13.1553L24.8495 7.36417L16.1034 8.12739L16.3535 10.9932ZM10.8111 13.0738L12.9535 14.9936V14.9936L10.8111 13.0738ZM9.60578 12.0182L11.7482 13.9381L11.7482 13.9381L9.60578 12.0182ZM12.2462 10.1745L11.1874 7.49969L11.1874 7.49969L12.2462 10.1745ZM16.6013 9.36616L16.7499 12.2391L22.9492 11.9184L18.6972 7.3957L16.6013 9.36616ZM14.8642 9.82264L16.7583 11.769L20.8816 7.75651L18.9875 5.81011L14.8642 9.82264ZM16.8047 11.8157C15.8522 10.8807 15.8522 9.34222 16.8047 8.40719L20.8352 12.513C22.18 11.1929 22.18 9.03001 20.8352 7.70987L16.8047 11.8157ZM16.8642 8.35046L14.9999 10.0788L18.9114 14.298L20.7757 12.5697L16.8642 8.35046ZM14.9404 10.1355C15.8632 9.22962 17.3377 9.22962 18.2605 10.1355L14.23 14.2413C15.5452 15.5323 17.6557 15.5323 18.9709 14.2413L14.9404 10.1355ZM18.2605 10.1355C19.213 11.0705 19.213 12.609 18.2605 13.544L14.23 9.43818C12.8852 10.7583 12.8852 12.9212 14.2301 14.2413L18.2605 10.1355ZM17.0907 7.75857C16.9034 7.76725 16.7193 7.77774 16.5383 7.79002L16.9277 13.5303C17.0667 13.5209 17.2098 13.5127 17.3571 13.5059L17.0907 7.75857ZM16.5383 7.79002C12.706 8.04999 10.0737 9.13237 8.44319 10.9518L12.728 14.7915C12.9749 14.5159 13.9015 13.7356 16.9277 13.5303L16.5383 7.79002ZM8.44319 10.9518C6.56738 13.0451 6.54689 15.5517 6.54689 16.768H12.3004C12.3004 15.6096 12.4235 15.1313 12.728 14.7915L8.44319 10.9518ZM6.54689 16.768C6.54689 15.4015 7.66043 14.3843 8.92132 14.3843V20.1378C10.737 20.1378 12.3004 18.6791 12.3004 16.768H6.54689ZM8.92132 14.3843C10.1822 14.3843 11.2958 15.4015 11.2958 16.768H5.54229C5.54229 18.6791 7.1056 20.1378 8.92132 20.1378V14.3843ZM11.2958 16.768C11.2958 15.6048 11.3997 14.7807 11.9737 14.1402L7.68891 10.3005C5.54593 12.6919 5.54229 15.5394 5.54229 16.768H11.2958ZM11.9737 14.1402C12.3411 13.7302 12.7243 13.4161 13.3504 13.1575C14.0323 12.8759 15.1322 12.6084 16.994 12.5308L16.7546 6.78233C14.4761 6.87724 12.6574 7.21892 11.1541 7.83977C9.59521 8.48362 8.52701 9.36524 7.68891 10.3005L11.9737 14.1402ZM16.994 12.5308C17.1114 12.5259 17.2317 12.5218 17.3548 12.5185L17.1991 6.76709C17.0488 6.77116 16.9006 6.77624 16.7546 6.78233L16.994 12.5308ZM18.2307 6.46079C19.1832 7.39581 19.1832 8.93425 18.2307 9.86928L14.2002 5.76347C12.8554 7.08361 12.8554 9.24645 14.2002 10.5666L18.2307 6.46079ZM18.2307 9.86928C17.3079 10.7752 15.8334 10.7752 14.9106 9.86928L18.9411 5.76346C17.6259 4.47248 15.5154 4.47247 14.2002 5.76347L18.2307 9.86928ZM13.9881 5.54737C12.5299 6.97885 12.5222 9.31982 13.9664 10.7612L18.0307 6.68889C18.8504 7.50694 18.8459 8.84104 18.0186 9.65318L13.9881 5.54737ZM19.1532 5.54737C17.7203 4.14076 15.421 4.14075 13.9881 5.54737L18.0186 9.65319C17.2135 10.4434 15.9277 10.4434 15.1227 9.65319L19.1532 5.54737ZM19.1581 5.55218L19.1531 5.54733L15.1228 9.65323L15.1277 9.65808L19.1581 5.55218ZM21.0965 7.54316L19.2046 5.59892L15.0812 9.61134L16.9731 11.5556L21.0965 7.54316ZM21.0473 12.7291C22.5088 11.2944 22.5131 8.9462 21.0596 7.50592L17.01 11.5928C16.1851 10.7755 16.1876 9.43724 17.0168 8.62328L21.0473 12.7291ZM21.041 12.7352L21.0472 12.7292L17.0169 8.6232L17.0107 8.62926L21.041 12.7352ZM19.12 14.5176L20.9815 12.792L17.0702 8.57252L15.2087 10.2981L19.12 14.5176ZM14.0179 14.4574C15.4458 15.859 17.7333 15.8639 19.1674 14.4726L15.1612 10.3431C15.9669 9.56146 17.2461 9.56407 18.0484 10.3516L14.0179 14.4574ZM14.0179 9.22208C12.5522 10.6609 12.5522 13.0186 14.0179 14.4574L18.0484 10.3516C18.88 11.1679 18.88 12.5116 18.0484 13.3279L14.0179 9.22208ZM14.024 9.21616L14.0179 9.22208L18.0484 13.3279L18.0544 13.322L14.024 9.21616ZM12.9535 14.9936C13.1213 14.8064 13.8976 14.0952 16.6036 13.8591L16.1034 8.12739C12.5678 8.43592 10.1633 9.48613 8.6687 11.1539L12.9535 14.9936ZM12.6032 16.768C12.6032 15.6114 12.7321 15.2407 12.9535 14.9936L8.66871 11.1539C6.87522 13.1553 6.8497 15.556 6.8497 16.768H12.6032ZM8.92132 20.4406C10.8932 20.4406 12.6032 18.8573 12.6032 16.768H6.8497C6.8497 15.5683 7.82816 14.6871 8.92132 14.6871V20.4406ZM5.23948 16.768C5.23948 18.8573 6.94948 20.4406 8.92132 20.4406V14.6871C10.0145 14.6871 10.9929 15.5683 10.9929 16.768H5.23948ZM7.46339 10.0984C5.23811 12.5816 5.23948 15.535 5.23948 16.768H10.9929C10.9929 15.6023 11.0913 14.6711 11.7482 13.9381L7.46339 10.0984ZM11.1874 7.49969C9.50323 8.16638 8.35683 9.1014 7.46339 10.0984L11.7482 13.9381C12.1503 13.4893 12.5845 13.1345 13.3051 12.8493L11.1874 7.49969ZM16.4527 6.49326C14.358 6.6016 12.6381 6.92541 11.1874 7.49969L13.3051 12.8493C14.0007 12.5739 15.0605 12.3264 16.7499 12.2391L16.4527 6.49326ZM13.9026 10.6955L14.5054 11.3366L18.6972 7.3957L18.0944 6.75456L13.9026 10.6955ZM18.1429 13.6532L19.1215 12.7943L15.3263 8.47011L14.3477 9.32897L18.1429 13.6532ZM19.3729 7.67231L18.3114 6.54323L14.1196 10.4842L15.181 11.6132L19.3729 7.67231ZM14.4559 8.83112L14.1416 9.10696L17.9368 13.4312L18.2511 13.1553L14.4559 8.83112Z" fill="url(#paint6_linear_2273_28325)" mask="url(#path-9-inside-1_2273_28325)"/>
<path fill-rule="evenodd" clip-rule="evenodd" d="M20.5547 32.9108L18.6606 30.9644C18.4645 30.7718 18.4645 30.4596 18.6606 30.267L20.5249 28.5387C20.7211 28.3462 21.0391 28.3462 21.2353 28.5387C21.4314 28.7313 21.4314 29.0435 21.2353 29.236L20.2567 30.0949C24.0089 29.921 25.9125 28.9519 26.895 27.8555C27.9851 26.6389 28.0569 25.1465 28.0569 23.9591C28.0569 23.6868 28.2818 23.4661 28.5592 23.4661C28.8366 23.4661 29.0615 23.6868 29.0615 23.9591C29.0615 25.155 29.0077 26.9908 27.6493 28.5068C26.4054 29.8949 24.638 30.9644 20.2036 31.0844L21.2651 32.2134C21.4612 32.406 21.4612 32.7182 21.2651 32.9108C21.0689 33.1033 20.7509 33.1033 20.5547 32.9108Z" fill="url(#paint7_linear_2273_28325)"/>
<mask id="path-12-inside-2_2273_28325" fill="white">
<path fill-rule="evenodd" clip-rule="evenodd" d="M20.5546 32.9117L18.6605 30.9653C18.4644 30.7727 18.4644 30.4605 18.6605 30.2679L20.5248 28.5396C20.721 28.3471 21.039 28.3471 21.2352 28.5396C21.4313 28.7322 21.4313 29.0444 21.2352 29.2369L20.2566 30.0958C20.4239 30.0881 20.5875 30.0787 20.7475 30.0679C24.1767 29.8352 25.9562 28.9039 26.8949 27.8564C27.985 26.6398 28.0568 25.1474 28.0568 23.96C28.0568 23.6877 28.2817 23.467 28.5591 23.467C28.8366 23.467 29.0614 23.6877 29.0614 23.96C29.0614 25.1559 29.0077 26.9917 27.6492 28.5077C26.4437 29.8529 24.7464 30.899 20.6062 31.0715C20.4744 31.0769 20.3402 31.0816 20.2035 31.0853L21.265 32.2143C21.4612 32.4069 21.4612 32.7191 21.265 32.9117C21.0688 33.1042 20.7508 33.1042 20.5546 32.9117ZM21.4819 32.003C21.7942 32.3146 21.7926 32.8181 21.4771 33.1277C21.1632 33.4359 20.6565 33.4359 20.3425 33.1277L20.3376 33.1229L18.4457 31.1787C18.1313 30.8672 18.1323 30.3622 18.4484 30.0518L18.4546 30.0458L20.3162 28.3202C20.6303 28.0153 21.1345 28.0165 21.4473 28.3235C21.7644 28.6348 21.7644 29.1418 21.4473 29.453L21.4413 29.459L21.127 29.7348C24.2478 29.4625 25.8382 28.5818 26.6694 27.6543C27.6768 26.53 27.754 25.1443 27.754 23.96C27.754 23.5152 28.1198 23.1642 28.5591 23.1642C28.9985 23.1642 29.3643 23.5152 29.3643 23.96C29.3643 25.1594 29.3158 27.1017 27.8747 28.7098C27.2269 29.4327 26.4366 30.0776 25.2342 30.5536C24.161 30.9784 22.7712 31.264 20.8792 31.3619L21.4819 32.003Z"/>
</mask>
<path d="M20.5546 32.9117L18.493 34.9179L18.5159 34.9415L18.5394 34.9646L20.5546 32.9117ZM18.6605 30.9653L20.7222 28.959L20.6993 28.9354L20.6758 28.9123L18.6605 30.9653ZM18.6605 30.2679L16.7048 28.1583L16.6746 28.1862L16.6453 28.215L18.6605 30.2679ZM20.5248 28.5396L22.4806 30.6493L22.5107 30.6213L22.5401 30.5925L20.5248 28.5396ZM21.2352 28.5396L19.22 30.5925L19.22 30.5925L21.2352 28.5396ZM21.2352 29.2369L23.1328 31.3991L23.1931 31.3461L23.2504 31.2899L21.2352 29.2369ZM20.2566 30.0958L18.359 27.9337L12.1882 33.3496L20.3898 32.9695L20.2566 30.0958ZM20.7475 30.0679L20.9422 32.938L20.9422 32.938L20.7475 30.0679ZM26.8949 27.8564L24.7525 25.9365L24.7525 25.9365L26.8949 27.8564ZM27.6492 28.5077L29.7916 30.4275L29.7916 30.4275L27.6492 28.5077ZM20.6062 31.0715L20.4864 28.1972H20.4864L20.6062 31.0715ZM20.2035 31.0853L20.1257 28.2096L13.7146 28.3831L18.1076 33.0557L20.2035 31.0853ZM21.265 32.2143L19.1691 34.1848L19.2086 34.2268L19.2498 34.2672L21.265 32.2143ZM21.265 32.9117L19.2498 30.8587L19.2498 30.8587L21.265 32.9117ZM21.4771 33.1277L23.4924 35.1807L23.4924 35.1807L21.4771 33.1277ZM21.4819 32.003L19.386 33.9735L19.4174 34.0068L19.4498 34.0391L21.4819 32.003ZM20.3425 33.1277L22.3577 31.0748L22.3577 31.0748L20.3425 33.1277ZM20.3376 33.1229L18.2758 35.1291L18.2988 35.1527L18.3224 35.1758L20.3376 33.1229ZM18.4457 31.1787L20.5074 29.1725L20.4891 29.1537L20.4705 29.1352L18.4457 31.1787ZM18.4484 30.0518L16.4333 27.9989L16.4332 27.9989L18.4484 30.0518ZM18.4546 30.0458L16.4989 27.936L16.4688 27.964L16.4394 27.9928L18.4546 30.0458ZM20.3162 28.3202L22.2718 30.4299L22.2958 30.4077L22.3192 30.3849L20.3162 28.3202ZM21.4473 28.3235L19.4321 30.3764L19.4321 30.3764L21.4473 28.3235ZM21.4473 29.453L23.4625 31.5059L23.4625 31.5059L21.4473 29.453ZM21.4413 29.459L23.3389 31.6211L23.3992 31.5681L23.4565 31.5119L21.4413 29.459ZM21.127 29.7348L19.2294 27.5727L12.631 33.3639L21.3771 32.6006L21.127 29.7348ZM26.6694 27.6543L24.527 25.7344V25.7344L26.6694 27.6543ZM27.8747 28.7098L25.7323 26.7899L25.7323 26.7899L27.8747 28.7098ZM25.2342 30.5536L26.2931 33.2283L26.2931 33.2283L25.2342 30.5536ZM20.8792 31.3619L20.7306 28.489L14.5312 28.8096L18.7833 33.3323L20.8792 31.3619ZM22.6163 30.9054L20.7222 28.959L16.5989 32.9715L18.493 34.9179L22.6163 30.9054ZM20.6758 28.9123C21.6283 29.8474 21.6283 31.3858 20.6758 32.3208L16.6453 28.215C15.3005 29.5352 15.3005 31.698 16.6453 33.0182L20.6758 28.9123ZM20.6163 32.3776L22.4806 30.6493L18.5691 26.43L16.7048 28.1583L20.6163 32.3776ZM22.5401 30.5925C21.6173 31.4984 20.1428 31.4984 19.22 30.5925L23.2504 26.4867C21.9353 25.1957 19.8247 25.1957 18.5096 26.4867L22.5401 30.5925ZM19.22 30.5925C18.2674 29.6575 18.2674 28.1191 19.22 27.184L23.2504 31.2899C24.5952 29.9697 24.5952 27.8069 23.2504 26.4867L19.22 30.5925ZM20.3898 32.9695C20.5771 32.9608 20.7612 32.9503 20.9422 32.938L20.5528 27.1977C20.4138 27.2072 20.2707 27.2153 20.1234 27.2222L20.3898 32.9695ZM20.9422 32.938C24.7745 32.678 27.4068 31.5957 29.0373 29.7762L24.7525 25.9365C24.5055 26.2121 23.579 26.9924 20.5528 27.1977L20.9422 32.938ZM29.0373 29.7762C30.9131 27.683 30.9336 25.1763 30.9336 23.96H25.1801C25.1801 25.1184 25.057 25.5967 24.7525 25.9365L29.0373 29.7762ZM30.9336 23.96C30.9336 25.3265 29.82 26.3437 28.5591 26.3437V20.5902C26.7434 20.5902 25.1801 22.0489 25.1801 23.96H30.9336ZM28.5591 26.3437C27.2983 26.3437 26.1847 25.3265 26.1847 23.96H31.9382C31.9382 22.0489 30.3749 20.5902 28.5591 20.5902V26.3437ZM26.1847 23.96C26.1847 25.1232 26.0808 25.9473 25.5068 26.5879L29.7916 30.4275C31.9345 28.0361 31.9382 25.1887 31.9382 23.96H26.1847ZM25.5068 26.5879C25.1394 26.9979 24.7562 27.3119 24.1301 27.5705C23.4482 27.8521 22.3482 28.1197 20.4864 28.1972L20.7259 33.9457C23.0043 33.8508 24.8231 33.5091 26.3263 32.8883C27.8853 32.2444 28.9535 31.3628 29.7916 30.4275L25.5068 26.5879ZM20.4864 28.1972C20.369 28.2021 20.2488 28.2062 20.1257 28.2096L20.2813 33.9609C20.4317 33.9569 20.5798 33.9518 20.7259 33.9457L20.4864 28.1972ZM19.2498 34.2672C18.2973 33.3322 18.2973 31.7938 19.2498 30.8587L23.2802 34.9646C24.6251 33.6444 24.6251 31.4816 23.2802 30.1614L19.2498 34.2672ZM19.2498 30.8587C20.1726 29.9529 21.6471 29.9529 22.5699 30.8587L18.5394 34.9646C19.8545 36.2555 21.9651 36.2556 23.2802 34.9646L19.2498 30.8587ZM23.4924 35.1807C24.9506 33.7492 24.9583 31.4082 23.5141 29.9669L19.4498 34.0391C18.6301 33.2211 18.6346 31.887 19.4619 31.0748L23.4924 35.1807ZM18.3273 35.1807C19.7602 36.5873 22.0594 36.5873 23.4924 35.1807L19.4619 31.0748C20.2669 30.2846 21.5527 30.2846 22.3577 31.0748L18.3273 35.1807ZM18.3224 35.1758L18.3273 35.1807L22.3577 31.0748L22.3528 31.0699L18.3224 35.1758ZM16.384 33.1849L18.2758 35.1291L22.3993 31.1167L20.5074 29.1725L16.384 33.1849ZM16.4332 27.9989C14.9717 29.4336 14.9673 31.7818 16.4209 33.2221L20.4705 29.1352C21.2954 29.9525 21.2928 31.2908 20.4636 32.1047L16.4332 27.9989ZM16.4394 27.9928L16.4333 27.9989L20.4636 32.1048L20.4697 32.0988L16.4394 27.9928ZM18.3605 26.2104L16.4989 27.936L20.4103 32.1555L22.2718 30.4299L18.3605 26.2104ZM23.4626 26.2706C22.0347 24.869 19.7472 24.8641 18.3131 26.2554L22.3192 30.3849C21.5135 31.1666 20.2343 31.164 19.4321 30.3764L23.4626 26.2706ZM23.4625 31.5059C24.9283 30.0671 24.9283 27.7095 23.4625 26.2706L19.4321 30.3764C18.6005 29.5601 18.6005 28.2165 19.4321 27.4001L23.4625 31.5059ZM23.4565 31.5119L23.4625 31.5059L19.4321 27.4001L19.4261 27.4061L23.4565 31.5119ZM24.527 25.7344C24.3592 25.9217 23.5829 26.6328 20.8769 26.869L21.3771 32.6006C24.9126 32.2921 27.3172 31.2419 28.8118 29.5741L24.527 25.7344ZM24.8773 23.96C24.8773 25.1166 24.7484 25.4873 24.527 25.7344L28.8118 29.5741C30.6053 27.5727 30.6308 25.1721 30.6308 23.96H24.8773ZM28.5591 20.2874C26.5873 20.2874 24.8773 21.8708 24.8773 23.96H30.6308C30.6308 25.1597 29.6523 26.0409 28.5591 26.0409V20.2874ZM32.241 23.96C32.241 21.8708 30.531 20.2874 28.5591 20.2874V26.0409C27.466 26.0409 26.4875 25.1597 26.4875 23.96H32.241ZM30.0171 30.6296C32.2424 28.1464 32.241 25.193 32.241 23.96H26.4875C26.4875 25.1257 26.3892 26.0569 25.7323 26.7899L30.0171 30.6296ZM26.2931 33.2283C27.9772 32.5616 29.1236 31.6266 30.0171 30.6296L25.7323 26.7899C25.3302 27.2387 24.896 27.5935 24.1754 27.8788L26.2931 33.2283ZM21.0278 34.2348C23.1225 34.1264 24.8423 33.8026 26.2931 33.2283L24.1754 27.8788C23.4798 28.1541 22.42 28.4016 20.7306 28.489L21.0278 34.2348ZM23.5779 30.0325L22.9751 29.3914L18.7833 33.3323L19.386 33.9735L23.5779 30.0325ZM19.3376 27.0748L18.359 27.9337L22.1542 32.2579L23.1328 31.3991L19.3376 27.0748ZM18.1076 33.0557L19.1691 34.1848L23.3609 30.2439L22.2994 29.1148L18.1076 33.0557ZM23.0246 31.8969L23.3389 31.6211L19.5437 27.2968L19.2294 27.5727L23.0246 31.8969Z" fill="url(#paint8_linear_2273_28325)" mask="url(#path-12-inside-2_2273_28325)"/>
<defs>
<filter id="filter0_bi_2273_28325" x="-3.47672" y="-2.55729" width="45.388" height="45.3885" filterUnits="userSpaceOnUse" color-interpolation-filters="sRGB">
<feFlood flood-opacity="0" result="BackgroundImageFix"/>
<feGaussianBlur in="BackgroundImageFix" stdDeviation="3.19637"/>
<feComposite in2="SourceAlpha" operator="in" result="effect1_backgroundBlur_2273_28325"/>
<feBlend mode="normal" in="SourceGraphic" in2="effect1_backgroundBlur_2273_28325" result="shape"/>
<feColorMatrix in="SourceAlpha" type="matrix" values="0 0 0 0 0 0 0 0 0 0 0 0 0 0 0 0 0 0 127 0" result="hardAlpha"/>
<feOffset/>
<feGaussianBlur stdDeviation="3.19637"/>
<feComposite in2="hardAlpha" operator="arithmetic" k2="-1" k3="1"/>
<feColorMatrix type="matrix" values="0 0 0 0 0.996078 0 0 0 0 0.6 0 0 0 0 0.0509804 0 0 0 0.1 0"/>
<feBlend mode="normal" in2="shape" result="effect2_innerShadow_2273_28325"/>
</filter>
<linearGradient id="paint0_linear_2273_28325" x1="4.30284" y1="9.04425" x2="34.4848" y2="38.7906" gradientUnits="userSpaceOnUse">
<stop stop-color="#FEC600"/>
<stop offset="0.974714" stop-color="#FEC600" stop-opacity="0"/>
</linearGradient>
<linearGradient id="paint1_linear_2273_28325" x1="26.7664" y1="20.8114" x2="25.7014" y2="20.3156" gradientUnits="userSpaceOnUse">
<stop stop-color="#FEC600"/>
<stop offset="0.974714" stop-color="#FEC600" stop-opacity="0"/>
</linearGradient>
<linearGradient id="paint2_linear_2273_28325" x1="15.5686" y1="21.6305" x2="19.7031" y2="27.5251" gradientUnits="userSpaceOnUse">
<stop stop-color="#FEC600"/>
<stop offset="0.974714" stop-color="#FEC600" stop-opacity="0"/>
</linearGradient>
<linearGradient id="paint3_linear_2273_28325" x1="12.6041" y1="15.8588" x2="14.7095" y2="22.7181" gradientUnits="userSpaceOnUse">
<stop stop-color="#FEC600"/>
<stop offset="0.974714" stop-color="#FEC600" stop-opacity="0"/>
</linearGradient>
<linearGradient id="paint4_linear_2273_28325" x1="25.8744" y1="20.9073" x2="26.919" y2="22.0018" gradientUnits="userSpaceOnUse">
<stop stop-color="#FEC600"/>
<stop offset="0.974714" stop-color="#FEC600" stop-opacity="0"/>
</linearGradient>
<linearGradient id="paint5_linear_2273_28325" x1="5.79495" y1="14.5867" x2="19.5293" y2="10.2896" gradientUnits="userSpaceOnUse">
<stop stop-color="#FEC600"/>
<stop offset="0.974714" stop-color="#FEC600" stop-opacity="0"/>
</linearGradient>
<linearGradient id="paint6_linear_2273_28325" x1="5.79483" y1="17.6147" x2="20.7243" y2="11.8084" gradientUnits="userSpaceOnUse">
<stop stop-color="#FEC600"/>
<stop offset="0.974714" stop-color="#FEC600" stop-opacity="0"/>
</linearGradient>
<linearGradient id="paint7_linear_2273_28325" x1="18.2107" y1="30.7348" x2="29.5735" y2="22.6193" gradientUnits="userSpaceOnUse">
<stop stop-color="#FEC600"/>
<stop offset="0.974714" stop-color="#FEC600" stop-opacity="0"/>
</linearGradient>
<linearGradient id="paint8_linear_2273_28325" x1="18.2108" y1="31.2396" x2="29.2403" y2="22.7127" gradientUnits="userSpaceOnUse">
<stop stop-color="#FEC600"/>
<stop offset="0.974714" stop-color="#FEC600" stop-opacity="0"/>
</linearGradient>
</defs>
</svg>
