<svg width="40" height="40" viewBox="0 0 40 40" fill="none" xmlns="http://www.w3.org/2000/svg">
<g filter="url(#filter0_bi_2273_28374)">
<path d="M20.3122 3.98853C11.3092 3.98853 4.01074 11.2869 4.01074 20.29C4.01074 29.2931 11.3092 36.5915 20.3122 36.5915C29.3153 36.5915 36.6137 29.2931 36.6137 20.29C36.6137 11.2869 29.3153 3.98853 20.3122 3.98853Z" fill="#29210E" fill-opacity="0.6"/>
<path d="M4.96965 20.29C4.96965 11.8165 11.8388 4.94744 20.3122 4.94744C28.7857 4.94744 35.6548 11.8165 35.6548 20.29C35.6548 28.7635 28.7857 35.6326 20.3122 35.6326C11.8388 35.6326 4.96965 28.7635 4.96965 20.29Z" stroke="#FEC600" stroke-opacity="0.07" stroke-width="1.91782"/>
</g>
<path d="M2.42079 20.1379C2.42079 10.3405 10.3632 2.39808 20.1606 2.39808C29.9581 2.39808 37.9005 10.3405 37.9005 20.1379C37.9005 29.9354 29.9581 37.8778 20.1606 37.8778C10.3632 37.8778 2.42079 29.9354 2.42079 20.1379Z" stroke="url(#paint0_linear_2273_28374)" stroke-width="2.87673" stroke-linecap="round"/>
<path fill-rule="evenodd" clip-rule="evenodd" d="M17.8292 13.0054C16.8344 12.3305 12.4174 12.3289 11.4336 13.0051C11.2561 12.3236 11.91 9.96118 14.4539 9.96118C17.4739 9.96118 17.8292 11.6556 17.8292 13.0054ZM21.5556 15.715C22.5395 15.0388 26.9564 15.0404 27.9513 15.7153C27.9513 14.3656 27.596 12.6711 24.5759 12.6711C22.0321 12.6711 21.3782 15.0335 21.5556 15.715ZM21.5243 16.5601C21.5243 16.3914 21.6036 16.2903 22.0317 16.1657C23.0682 15.864 25.7703 15.6827 27.4435 16.0528C27.8312 16.1385 27.9509 16.2223 27.9509 16.391C27.8817 16.5294 27.2459 16.7528 26.3333 16.8988C26.0891 16.9379 25.8966 16.8911 25.6737 16.8369C25.4664 16.7865 25.2328 16.7297 24.9067 16.7297C24.4498 16.7297 24.1763 16.8186 23.9489 16.8924C23.7555 16.9553 23.5956 17.0073 23.3846 16.9844C22.7067 17.0514 22.302 16.8814 21.8619 16.6966C21.7531 16.6508 21.6421 16.6042 21.5243 16.5601ZM23.892 17.7597C23.1151 18.106 22.4369 17.8053 21.8759 17.5566C21.753 17.5021 21.6358 17.4501 21.5243 17.408C21.7498 18.9909 22.8773 21.8051 24.9067 21.8051C27.4175 21.8051 27.7421 19.1213 27.9098 17.7347C27.9242 17.6153 27.9375 17.5056 27.9509 17.408C27.7421 17.4514 27.5677 17.5288 27.3902 17.6076C26.9708 17.7939 26.5339 17.9879 25.5832 17.7597C25.245 17.5838 24.1885 17.6276 23.892 17.7597ZM21.904 26.1722C21.72 26.6372 20.4763 26.9517 18.8428 27.1071C18.885 27.4658 18.9747 27.7541 19.0583 27.9144C19.9574 29.64 30.8027 29.652 31.3756 28.204C31.6846 27.4231 32.0118 25.8752 30.8947 24.6015C30.2091 23.8198 28.6309 23.1189 27.1985 22.8285C27.1234 22.8133 27.003 22.9291 26.8493 23.077C26.601 23.316 26.2657 23.6386 25.8937 23.6271C25.4348 23.6129 24.9199 23.6199 24.4435 23.6264H24.4435L24.4027 23.627C24.0089 23.6323 23.6436 23.3288 23.3607 23.0937C23.166 22.9319 23.0103 22.8026 22.9114 22.8288C22.6415 22.9003 22.3724 22.9833 22.109 23.0767C22.6554 24.2281 22.1667 25.5081 21.904 26.1722ZM11.4032 13.85C11.4032 13.6813 11.4824 13.5802 11.9106 13.4556C12.947 13.1539 15.6492 12.9726 17.3224 13.3427C17.7101 13.4284 17.8298 13.5122 17.8298 13.6808C17.7606 13.8193 17.1247 14.0427 16.2122 14.1887C15.968 14.2278 15.7755 14.181 15.5526 14.1268C15.3453 14.0764 15.1116 14.0196 14.7856 14.0196C14.3287 14.0196 14.0552 14.1085 13.8278 14.1823C13.6344 14.2452 13.4744 14.2972 13.2635 14.2743C12.5856 14.3413 12.1809 14.1713 11.7408 13.9864C11.632 13.9407 11.521 13.8941 11.4032 13.85ZM13.7709 15.0498C12.994 15.396 12.3158 15.0953 11.7548 14.8466L11.7548 14.8466C11.6319 14.7921 11.5146 14.7401 11.4032 14.698C11.6287 16.281 12.7562 19.0951 14.7856 19.0951C17.2964 19.0951 17.621 16.4113 17.7887 15.0248L17.7887 15.0248C17.8031 14.9054 17.8164 14.7956 17.8298 14.698C17.621 14.7414 17.4466 14.8189 17.2691 14.8977C16.8497 15.0839 16.4127 15.2779 15.4621 15.0498C15.1239 14.8739 14.0674 14.9176 13.7709 15.0498ZM8.93622 25.197C9.83533 26.9225 20.6806 26.9345 21.2535 25.4866C21.5625 24.7056 21.8898 23.1577 20.7727 21.8841C20.087 21.1024 18.5088 20.4015 17.0765 20.1111C17.0013 20.0958 16.881 20.2117 16.7273 20.3595C16.479 20.5985 16.1437 20.9212 15.7717 20.9096C15.3127 20.8954 14.7979 20.9025 14.3215 20.909H14.3215L14.2806 20.9095C13.8869 20.9149 13.5215 20.6113 13.2386 20.3762C13.0439 20.2144 12.8883 20.0851 12.7893 20.1113C11.3035 20.5051 9.84103 21.2449 9.21686 22.1805C8.43176 23.3573 8.70732 24.7577 8.93622 25.197Z" fill="url(#paint1_linear_2273_28374)"/>
<defs>
<filter id="filter0_bi_2273_28374" x="-2.382" y="-2.40421" width="45.388" height="45.3885" filterUnits="userSpaceOnUse" color-interpolation-filters="sRGB">
<feFlood flood-opacity="0" result="BackgroundImageFix"/>
<feGaussianBlur in="BackgroundImageFix" stdDeviation="3.19637"/>
<feComposite in2="SourceAlpha" operator="in" result="effect1_backgroundBlur_2273_28374"/>
<feBlend mode="normal" in="SourceGraphic" in2="effect1_backgroundBlur_2273_28374" result="shape"/>
<feColorMatrix in="SourceAlpha" type="matrix" values="0 0 0 0 0 0 0 0 0 0 0 0 0 0 0 0 0 0 127 0" result="hardAlpha"/>
<feOffset/>
<feGaussianBlur stdDeviation="3.19637"/>
<feComposite in2="hardAlpha" operator="arithmetic" k2="-1" k3="1"/>
<feColorMatrix type="matrix" values="0 0 0 0 0.996078 0 0 0 0 0.6 0 0 0 0 0.0509804 0 0 0 0.1 0"/>
<feBlend mode="normal" in2="shape" result="effect2_innerShadow_2273_28374"/>
</filter>
<linearGradient id="paint0_linear_2273_28374" x1="5.24425" y1="9.04425" x2="35.4262" y2="38.7906" gradientUnits="userSpaceOnUse">
<stop stop-color="#FEC600"/>
<stop offset="0.974714" stop-color="#FEC600" stop-opacity="0"/>
</linearGradient>
<linearGradient id="paint1_linear_2273_28374" x1="11.2491" y1="14.0272" x2="26.2374" y2="31.6205" gradientUnits="userSpaceOnUse">
<stop stop-color="#FEC600"/>
<stop offset="0.974714" stop-color="#FEC600" stop-opacity="0"/>
</linearGradient>
</defs>
</svg>
