<svg width="40" height="40" viewBox="0 0 40 40" fill="none" xmlns="http://www.w3.org/2000/svg">
<g filter="url(#filter0_bi_2273_28313)">
<path d="M20.0544 3.98853C11.0514 3.98853 3.75293 11.2869 3.75293 20.29C3.75293 29.2931 11.0514 36.5915 20.0544 36.5915C29.0575 36.5915 36.3559 29.2931 36.3559 20.29C36.3559 11.2869 29.0575 3.98853 20.0544 3.98853Z" fill="#29210E" fill-opacity="0.6"/>
<path d="M4.71184 20.29C4.71184 11.8165 11.5809 4.94744 20.0544 4.94744C28.5279 4.94744 35.397 11.8165 35.397 20.29C35.397 28.7635 28.5279 35.6326 20.0544 35.6326C11.5809 35.6326 4.71184 28.7635 4.71184 20.29Z" stroke="#FEC600" stroke-opacity="0.07" stroke-width="1.91782"/>
</g>
<path d="M2.16298 20.1379C2.16298 10.3405 10.1054 2.39808 19.9028 2.39808C29.7003 2.39808 37.6427 10.3405 37.6427 20.1379C37.6427 29.9354 29.7003 37.8778 19.9028 37.8778C10.1054 37.8778 2.16298 29.9354 2.16298 20.1379Z" stroke="url(#paint0_linear_2273_28313)" stroke-width="2.87673" stroke-linecap="round"/>
<g filter="url(#filter1_bi_2273_28313)">
<path d="M30.2998 25.5101C30.2998 25.861 30.0153 26.1455 29.6644 26.1455L20.9804 26.1455L18.0151 26.1455L9.33106 26.1455C8.98013 26.1455 8.69565 25.861 8.69565 25.5101C8.69565 25.1592 8.98013 24.8747 9.33106 24.8747L29.6644 24.8747C30.0153 24.8747 30.2998 25.1592 30.2998 25.5101Z" fill="#FEC600" fill-opacity="0.07"/>
</g>
<g filter="url(#filter2_bi_2273_28313)">
<path d="M11.0117 14.009C11.0117 13.433 12.2088 13.1758 12.7972 13.1758H27.9492C28.5376 13.1758 29.0146 13.2291 29.0146 13.8052V24.992C29.0146 25.568 28.5376 26.035 27.9492 26.035H12.7972C12.2088 26.035 11.0117 25.568 11.0117 24.992V14.009Z" fill="#29210E" fill-opacity="0.8"/>
<path d="M11.6547 24.9344V14.1019C11.7015 14.0688 11.7824 14.0249 11.9046 13.9802C12.2011 13.8719 12.5721 13.8187 12.7972 13.8187H27.9492C28.0903 13.8187 28.2021 13.8222 28.2937 13.8322C28.3252 13.8357 28.3509 13.8396 28.3717 13.8435V24.992C28.3717 25.2001 28.1955 25.392 27.9492 25.392H12.7972C12.6287 25.392 12.2821 25.3118 11.9742 25.1559C11.8256 25.0806 11.724 25.0064 11.6688 24.9496C11.6632 24.9438 11.6585 24.9388 11.6547 24.9344ZM11.6383 24.913C11.6384 24.913 11.639 24.9139 11.64 24.9158C11.6388 24.9139 11.6383 24.913 11.6383 24.913Z" stroke="#FEC600" stroke-opacity="0.07" stroke-width="1.28592"/>
</g>
<path fill-rule="evenodd" clip-rule="evenodd" d="M11.658 13.7837L28.0625 13.8188C28.2835 13.8188 28.4626 13.9979 28.4626 14.2189L28.4626 25.3841C28.4626 25.6051 28.2835 25.7842 28.0625 25.7842L11.658 25.5372C11.437 25.5372 11.2579 25.3581 11.2579 25.1371L11.2579 14.1838C11.2579 13.9629 11.437 13.7837 11.658 13.7837ZM9.72559 13.8052C9.72559 13.1422 10.595 12.5806 11.2579 12.5806H28.0625C28.7254 12.5806 29.6087 13.118 29.6087 13.7809V25.3841C29.6087 26.047 28.7254 26.5844 28.0625 26.5844H11.2579C10.595 26.5844 9.72559 26.0713 9.72559 25.4084V13.8052Z" fill="url(#paint1_linear_2273_28313)"/>
<path fill-rule="evenodd" clip-rule="evenodd" d="M8.44728 25.7773C8.44728 26.2745 8.73176 26.6775 9.08269 26.6775H29.6646C30.0156 26.6775 30.3001 26.2745 30.3001 25.7773C30.3001 25.2802 30.0156 24.8772 29.6646 24.8772H9.08269C8.73176 24.8772 8.44728 25.2802 8.44728 25.7773Z" fill="url(#paint2_linear_2273_28313)"/>
<defs>
<filter id="filter0_bi_2273_28313" x="-2.63981" y="-2.40421" width="45.388" height="45.3885" filterUnits="userSpaceOnUse" color-interpolation-filters="sRGB">
<feFlood flood-opacity="0" result="BackgroundImageFix"/>
<feGaussianBlur in="BackgroundImageFix" stdDeviation="3.19637"/>
<feComposite in2="SourceAlpha" operator="in" result="effect1_backgroundBlur_2273_28313"/>
<feBlend mode="normal" in="SourceGraphic" in2="effect1_backgroundBlur_2273_28313" result="shape"/>
<feColorMatrix in="SourceAlpha" type="matrix" values="0 0 0 0 0 0 0 0 0 0 0 0 0 0 0 0 0 0 127 0" result="hardAlpha"/>
<feOffset/>
<feGaussianBlur stdDeviation="3.19637"/>
<feComposite in2="hardAlpha" operator="arithmetic" k2="-1" k3="1"/>
<feColorMatrix type="matrix" values="0 0 0 0 0.996078 0 0 0 0 0.6 0 0 0 0 0.0509804 0 0 0 0.1 0"/>
<feBlend mode="normal" in2="shape" result="effect2_innerShadow_2273_28313"/>
</filter>
<filter id="filter1_bi_2273_28313" x="6.35541" y="22.5349" width="26.2843" height="5.95055" filterUnits="userSpaceOnUse" color-interpolation-filters="sRGB">
<feFlood flood-opacity="0" result="BackgroundImageFix"/>
<feGaussianBlur in="BackgroundImageFix" stdDeviation="1.16995"/>
<feComposite in2="SourceAlpha" operator="in" result="effect1_backgroundBlur_2273_28313"/>
<feBlend mode="normal" in="SourceGraphic" in2="effect1_backgroundBlur_2273_28313" result="shape"/>
<feColorMatrix in="SourceAlpha" type="matrix" values="0 0 0 0 0 0 0 0 0 0 0 0 0 0 0 0 0 0 127 0" result="hardAlpha"/>
<feOffset/>
<feGaussianBlur stdDeviation="1.16995"/>
<feComposite in2="hardAlpha" operator="arithmetic" k2="-1" k3="1"/>
<feColorMatrix type="matrix" values="0 0 0 0 0.996078 0 0 0 0 0.6 0 0 0 0 0.0509804 0 0 0 0.1 0"/>
<feBlend mode="normal" in2="shape" result="effect2_innerShadow_2273_28313"/>
</filter>
<filter id="filter2_bi_2273_28313" x="8.18765" y="10.3517" width="23.6511" height="18.5073" filterUnits="userSpaceOnUse" color-interpolation-filters="sRGB">
<feFlood flood-opacity="0" result="BackgroundImageFix"/>
<feGaussianBlur in="BackgroundImageFix" stdDeviation="1.41204"/>
<feComposite in2="SourceAlpha" operator="in" result="effect1_backgroundBlur_2273_28313"/>
<feBlend mode="normal" in="SourceGraphic" in2="effect1_backgroundBlur_2273_28313" result="shape"/>
<feColorMatrix in="SourceAlpha" type="matrix" values="0 0 0 0 0 0 0 0 0 0 0 0 0 0 0 0 0 0 127 0" result="hardAlpha"/>
<feOffset/>
<feGaussianBlur stdDeviation="1.41204"/>
<feComposite in2="hardAlpha" operator="arithmetic" k2="-1" k3="1"/>
<feColorMatrix type="matrix" values="0 0 0 0 0.996078 0 0 0 0 0.6 0 0 0 0 0.0509804 0 0 0 0.1 0"/>
<feBlend mode="normal" in2="shape" result="effect2_innerShadow_2273_28313"/>
</filter>
<linearGradient id="paint0_linear_2273_28313" x1="4.98643" y1="9.04425" x2="35.1684" y2="38.7906" gradientUnits="userSpaceOnUse">
<stop stop-color="#FEC600"/>
<stop offset="0.974714" stop-color="#FEC600" stop-opacity="0"/>
</linearGradient>
<linearGradient id="paint1_linear_2273_28313" x1="12.1915" y1="15.5322" x2="22.73" y2="29.7764" gradientUnits="userSpaceOnUse">
<stop stop-color="#FEC600"/>
<stop offset="0.974714" stop-color="#FEC600" stop-opacity="0"/>
</linearGradient>
<linearGradient id="paint2_linear_2273_28313" x1="11.0964" y1="25.2567" x2="11.5261" y2="28.505" gradientUnits="userSpaceOnUse">
<stop stop-color="#FEC600"/>
<stop offset="0.974714" stop-color="#FEC600" stop-opacity="0"/>
</linearGradient>
</defs>
</svg>
