<svg width="234" height="45" viewBox="0 0 234 45" fill="none" xmlns="http://www.w3.org/2000/svg">
<path d="M13.4831 30.5369C16.263 24.5116 17.1121 22.8777 25.2262 20.88C25.2826 20.8661 25.2908 20.788 25.2385 20.7629C18.9837 17.6959 22.2949 13.1427 24.2917 11.5562C26.1496 10.0813 30.0291 9.18069 31.9186 8.85447C32.0521 8.83217 32.0342 8.63281 31.8993 8.63281L19.6082 8.67189C16.1815 8.67189 13.0358 10.6069 11.5261 13.7227C7.32871 22.3842 3.5538 29.2795 0.00733256 36.1649C-0.0146866 36.2067 0.0155897 36.2569 0.0623804 36.2569H5.05247C8.72692 36.2569 11.9266 33.9093 13.4831 30.5369Z" fill="#FEC600"/>
<path d="M45.9288 8.70839C45.9413 8.68475 45.9261 8.64844 45.8958 8.64844H39.7545C36.4379 8.64844 34.4267 8.62404 31.5455 14.6821C28.6644 20.7402 24.3446 32.75 13.2308 36.1003C13.1496 36.1267 13.1702 36.2508 13.2569 36.2508L25.4421 36.2726C28.6362 36.2726 32.3564 34.6382 33.8482 31.7775C36.4832 26.7259 42.6799 14.8569 45.9288 8.70839Z" fill="#FEC600"/>
<path d="M47.2291 36H40.2424L53.7823 9.10401H62.4368L67.0465 36H60.0598L57.1049 15.8805H56.8948L47.2291 36ZM48.0696 25.415H62.6732L61.8327 30.3529H47.2291L48.0696 25.415ZM95.176 18.8486H88.6884C88.7234 18.1656 88.6578 17.5572 88.4914 17.0231C88.3251 16.4803 88.0624 16.0162 87.7035 15.631C87.3445 15.237 86.898 14.9394 86.3639 14.738C85.8298 14.5366 85.2082 14.4359 84.499 14.4359C83.142 14.4359 81.9119 14.773 80.8087 15.4472C79.7056 16.1213 78.7819 17.0931 78.0377 18.3626C77.2935 19.6321 76.7726 21.1556 76.4749 22.9329C76.2035 24.6489 76.2079 26.0804 76.488 27.2273C76.777 28.3742 77.311 29.2366 78.0902 29.8144C78.8694 30.3835 79.8588 30.6681 81.0582 30.6681C81.8375 30.6681 82.5598 30.5762 83.2252 30.3923C83.8993 30.1997 84.5078 29.9239 85.0506 29.5649C85.5934 29.206 86.0618 28.7726 86.4558 28.2648C86.8586 27.7482 87.1694 27.1748 87.3883 26.5444H93.9284C93.6045 27.7263 93.0704 28.9039 92.3262 30.0771C91.5908 31.2415 90.6627 32.2965 89.542 33.2421C88.4214 34.1877 87.1212 34.945 85.6416 35.5141C84.162 36.0832 82.516 36.3677 80.7037 36.3677C78.2259 36.3677 76.0897 35.8118 74.2949 34.6999C72.5088 33.5879 71.2174 31.977 70.4207 29.867C69.6327 27.7482 69.4839 25.1829 69.9742 22.1712C70.4557 19.2557 71.4056 16.7998 72.824 14.8036C74.2511 12.8075 75.9846 11.2972 78.0246 10.2728C80.0733 9.24847 82.2577 8.73629 84.5778 8.73629C86.2588 8.73629 87.7691 8.96393 89.1087 9.4192C90.457 9.86571 91.5995 10.5224 92.5363 11.3891C93.4731 12.2471 94.1692 13.3021 94.6244 14.5541C95.0885 15.8061 95.2723 17.2376 95.176 18.8486ZM100.464 36H93.4777L107.018 9.10401H115.672L120.282 36H113.295L110.34 15.8805H110.13L100.464 36ZM101.305 25.415H115.909L115.068 30.3529H100.464L101.305 25.415ZM132.524 36H122.438L126.903 9.10401H136.687C139.419 9.10401 141.695 9.65997 143.516 10.7719C145.346 11.875 146.637 13.4597 147.39 15.526C148.152 17.5834 148.296 20.0349 147.824 22.8803C147.368 25.6295 146.453 27.9846 145.079 29.9458C143.713 31.9069 141.962 33.4085 139.826 34.4503C137.689 35.4834 135.256 36 132.524 36ZM129.845 30.458H132.931C134.437 30.458 135.768 30.1865 136.923 29.6437C138.088 29.0921 139.051 28.2122 139.813 27.004C140.574 25.7871 141.117 24.1892 141.441 22.2106C141.756 20.3194 141.743 18.8267 141.402 17.7323C141.069 16.6291 140.421 15.8411 139.458 15.3684C138.504 14.8868 137.256 14.6461 135.715 14.6461H132.484L129.845 30.458ZM148.712 36L153.178 9.10401H171.931L171.038 14.3834H158.785L157.892 19.8992H169.186L168.293 25.1917H156.999L156.106 30.7206H168.359L167.466 36H148.712ZM175.263 9.10401H183.313L187.384 25.7564H187.7L197.286 9.10401H205.337L200.872 36H194.542L197.286 19.4789H197.063L187.897 35.8293H183.865L180.135 19.387H179.912L177.128 36H170.798L175.263 9.10401ZM207.312 9.10401H214.575L218.383 20.3588H218.659L226.184 9.10401H233.447L220.642 27.0172L219.145 36H212.684L214.194 27.0172L207.312 9.10401Z" fill="#E9EBF6"/>
</svg>
