<svg width="78" height="36" viewBox="0 0 78 36" fill="none" xmlns="http://www.w3.org/2000/svg">
<path d="M11.3995 23.809C13.5708 19.1632 14.234 17.9034 20.5717 16.3631C20.6158 16.3523 20.6222 16.2921 20.5814 16.2728C15.6959 13.9079 18.2821 10.3973 19.8418 9.17402C21.293 8.03676 24.3232 7.34236 25.799 7.09083C25.9033 7.07363 25.8893 6.91992 25.784 6.91992L16.1836 6.95005C13.5071 6.95005 11.0501 8.442 9.87093 10.8444C6.59244 17.5229 3.64395 22.8394 0.873891 28.1484C0.856693 28.1807 0.880341 28.2194 0.916888 28.2194L4.81453 28.2194C7.68455 28.2194 10.1837 26.4092 11.3995 23.809Z" fill="#FEC600"/>
<path d="M36.7426 6.97738C36.7524 6.95915 36.7405 6.93115 36.7168 6.93115L31.9201 6.93115C29.3295 6.93115 27.7586 6.91234 25.5082 11.5834C23.2578 16.2544 19.8837 25.5145 11.203 28.0977C11.1396 28.1182 11.1557 28.2138 11.2234 28.2138L20.7409 28.2306C23.2358 28.2306 26.1416 26.9705 27.3068 24.7647C29.3649 20.8697 34.205 11.7181 36.7426 6.97738Z" fill="#FEC600"/>
<path d="M49.3469 14.1212C49.3059 13.6904 49.2102 13.3108 49.0597 12.9826C48.9093 12.6475 48.7041 12.3637 48.4442 12.1312C48.1844 11.8987 47.863 11.7243 47.48 11.6081C47.0971 11.485 46.6526 11.4234 46.1465 11.4234C45.1344 11.4234 44.1975 11.6696 43.3359 12.162C42.4742 12.6544 41.746 13.3724 41.151 14.3161C40.5561 15.253 40.1492 16.3916 39.9303 17.7319C39.7115 19.0791 39.7047 20.228 39.9098 21.1785C40.1218 22.1291 40.5458 22.8539 41.1818 23.3532C41.8178 23.8524 42.6589 24.102 43.7052 24.102C44.642 24.102 45.4695 23.9515 46.1875 23.6506C46.9056 23.3429 47.4869 22.9087 47.9314 22.3479C48.3827 21.7871 48.6665 21.1272 48.7827 20.3682L49.7162 20.481L44.6079 20.481L45.2233 16.778L54.2706 16.778L53.809 19.5578C53.5013 21.4384 52.838 23.0488 51.819 24.3892C50.8069 25.7295 49.5418 26.7587 48.0237 27.4768C46.5124 28.1948 44.854 28.5538 43.0487 28.5538C41.0518 28.5538 39.3662 28.1196 37.9916 27.2511C36.6171 26.3826 35.6392 25.1448 35.0579 23.5378C34.4766 21.9239 34.3672 20.0091 34.7297 17.7935C35.0169 16.0702 35.5264 14.5418 36.2581 13.2083C36.9966 11.8679 37.8993 10.7327 38.9661 9.80271C40.0398 8.87267 41.2262 8.16831 42.5255 7.68962C43.8248 7.21092 45.1754 6.97158 46.5773 6.97158C47.7877 6.97158 48.8887 7.14596 49.8803 7.49472C50.8719 7.84348 51.7199 8.33585 52.4242 8.97183C53.1286 9.60781 53.6586 10.3635 54.0142 11.2388C54.3766 12.1141 54.5339 13.0749 54.486 14.1212L49.3469 14.1212ZM76.2984 18.0909C75.9154 20.3545 75.1632 22.2658 74.0417 23.825C72.927 25.3773 71.5696 26.5536 69.9693 27.3537C68.376 28.1538 66.6629 28.5538 64.8302 28.5538C62.8949 28.5538 61.2195 28.123 59.8039 27.2613C58.3884 26.3997 57.3592 25.1448 56.7164 23.4968C56.0804 21.8487 55.9573 19.8484 56.3471 17.496C56.7164 15.2325 57.4583 13.3177 58.573 11.7517C59.6945 10.1857 61.0588 8.99919 62.6659 8.19224C64.2797 7.37847 66.0099 6.97158 67.8563 6.97158C69.7779 6.97158 71.443 7.40582 72.8518 8.27431C74.2673 9.14279 75.2931 10.4045 75.9291 12.0594C76.5651 13.7143 76.6882 15.7248 76.2984 18.0909ZM71.2208 17.496C71.4328 16.1762 71.4328 15.0649 71.2208 14.1622C71.0156 13.2596 70.6122 12.5791 70.0104 12.121C69.4086 11.6559 68.6256 11.4234 67.6614 11.4234C66.5946 11.4234 65.6303 11.6867 64.7687 12.2133C63.9139 12.733 63.1993 13.4921 62.6248 14.4905C62.0504 15.4821 61.6503 16.6822 61.4247 18.0909C61.1922 19.4244 61.1853 20.5357 61.4042 21.4247C61.6298 22.3137 62.0504 22.9839 62.6659 23.4352C63.2813 23.8797 64.0643 24.102 65.0149 24.102C66.0748 24.102 67.0288 23.8455 67.8768 23.3326C68.7247 22.8198 69.4325 22.0709 70.0001 21.0862C70.5746 20.1015 70.9814 18.9047 71.2208 17.496Z" fill="#E9EBF6"/>
</svg>
