<svg width="15" height="14" viewBox="0 0 15 14" fill="none" xmlns="http://www.w3.org/2000/svg">
<path d="M11.1447 3.20336C10.9275 2.98619 10.5767 2.98619 10.3595 3.20336L7.63646 5.92086L4.91339 3.19779C4.69622 2.98062 4.34539 2.98062 4.12821 3.19779C3.91104 3.41497 3.91104 3.7658 4.12821 3.98297L6.85128 6.70604L4.12821 9.4291C3.91104 9.64628 3.91104 9.9971 4.12821 10.2143C4.34539 10.4315 4.69622 10.4315 4.91339 10.2143L7.63646 7.49121L10.3595 10.2143C10.5767 10.4315 10.9275 10.4315 11.1447 10.2143C11.3619 9.9971 11.3619 9.64628 11.1447 9.4291L8.42163 6.70604L11.1447 3.98297C11.3563 3.77136 11.3563 3.41497 11.1447 3.20336Z" fill="white"/>
</svg>
