<svg width="22" height="22" viewBox="0 0 22 22" fill="none" xmlns="http://www.w3.org/2000/svg">
<rect x="0.599609" y="0.200195" width="21.3333" height="21.3333" rx="3.2" fill="black"/>
<path d="M17.6674 5.17769H4.15625V6.59991H5.79181L8.12425 12.9999C8.27096 13.4149 8.54243 13.7743 8.90145 14.0289C9.26046 14.2836 9.68944 14.4209 10.1296 14.4221H16.2451V12.9999H10.1296C9.98344 12.9998 9.84087 12.9548 9.72126 12.8708C9.60165 12.7868 9.51083 12.668 9.46114 12.5306L9.13403 11.5777H15.7331C16.0418 11.5772 16.3419 11.4764 16.5882 11.2904C16.8345 11.1044 17.0136 10.8433 17.0985 10.5466L18.3785 6.0808C18.4074 5.98742 18.4167 5.88908 18.4059 5.79193C18.3951 5.69477 18.3644 5.60089 18.3157 5.51614C18.267 5.43139 18.2013 5.3576 18.1228 5.29936C18.0443 5.24113 17.9546 5.19971 17.8594 5.17769C17.7958 5.16733 17.7309 5.16733 17.6674 5.17769ZM15.7118 10.1555H8.60069L7.30647 6.59991H16.7216L15.7118 10.1555Z" fill="#FEC600"/>
<path d="M10.2005 17.2666C10.7896 17.2666 11.2671 16.7891 11.2671 16.2C11.2671 15.6109 10.7896 15.1333 10.2005 15.1333C9.61135 15.1333 9.13379 15.6109 9.13379 16.2C9.13379 16.7891 9.61135 17.2666 10.2005 17.2666Z" fill="#FEC600"/>
<path d="M14.4671 17.2666C15.0562 17.2666 15.5337 16.7891 15.5337 16.2C15.5337 15.6109 15.0562 15.1333 14.4671 15.1333C13.878 15.1333 13.4004 15.6109 13.4004 16.2C13.4004 16.7891 13.878 17.2666 14.4671 17.2666Z" fill="#FEC600"/>
</svg>
