<svg width="13" height="14" viewBox="0 0 13 14" fill="none" xmlns="http://www.w3.org/2000/svg">
<rect opacity="0.01" x="0.133301" y="0.533203" width="12.8" height="12.8" fill="#FEC600"/>
<path fill-rule="evenodd" clip-rule="evenodd" d="M9.36491 9.01379L11.1782 10.8218C11.2792 10.9219 11.336 11.0582 11.336 11.2005C11.336 11.3427 11.2792 11.479 11.1782 11.5791C11.0781 11.6801 10.9418 11.7369 10.7996 11.7369C10.6574 11.7369 10.5211 11.6801 10.4209 11.5791L8.61291 9.76579C7.86755 10.3508 6.94713 10.6683 5.99958 10.6671C3.64316 10.6671 1.73291 8.75687 1.73291 6.40046C1.73291 4.04404 3.64316 2.13379 5.99958 2.13379C8.35599 2.13379 10.2662 4.04404 10.2662 6.40046C10.2674 7.348 9.94997 8.26843 9.36491 9.01379ZM5.9997 3.2013C4.23239 3.2013 2.7997 4.63399 2.7997 6.4013C2.7997 8.16861 4.23239 9.6013 5.9997 9.6013C7.76701 9.6013 9.1997 8.16861 9.1997 6.4013C9.1997 4.63399 7.76701 3.2013 5.9997 3.2013Z" fill="#FEC600"/>
</svg>
